<?xml version="1.0" standalone="no"?>
<!DOCTYPE svg PUBLIC "-//W3C//DTD SVG 20010904//EN"
 "http://www.w3.org/TR/2001/REC-SVG-20010904/DTD/svg10.dtd">
<svg version="1.0" xmlns="http://www.w3.org/2000/svg"
 width="256.000000pt" height="256.000000pt" viewBox="0 0 256.000000 256.000000"
 preserveAspectRatio="xMidYMid meet">
<metadata>
Created by potrace 1.11, written by Peter Selinger 2001-2013
</metadata>
<g transform="translate(0.000000,256.000000) scale(0.100000,-0.100000)"
fill="#000000" stroke="none">
<path d="M129 1815 c-2 -1 -25 -6 -51 -9 -98 -13 -99 -23 -17 -95 117 -103
176 -230 184 -395 3 -75 9 -83 64 -84 104 -2 224 -52 283 -118 28 -33 65 -107
82 -166 19 -67 31 -71 84 -28 72 57 264 75 349 31 61 -31 108 -84 133 -151 27
-73 52 -80 70 -22 7 20 26 58 42 83 58 86 135 119 264 113 96 -5 138 -17 186
-55 56 -44 70 -39 83 32 6 31 51 121 76 153 52 66 181 125 274 126 69 0 77 8
80 76 7 175 64 299 185 406 33 29 60 58 60 65 0 23 -100 39 -255 41 -190 1
-325 -26 -459 -93 -106 -53 -115 -64 -143 -162 -44 -157 -118 -268 -213 -322
l-42 -23 2 38 c6 132 -4 143 -84 90 -70 -47 -102 -46 -173 1 -75 49 -87 41
-84 -56 l2 -72 -32 16 c-99 51 -189 188 -225 339 -17 75 -19 77 -70 111 -137
91 -303 133 -525 134 -70 0 -128 -2 -130 -4z"/>
</g>
</svg>
